HIERARCHY
ROOT Hips
{
 OFFSET 0.000000 0.000000 0.000000
 CHANNELS 6 Xposition Yposition Zposition Yrotation Xrotation Zrotation
 JOINT Chest
 {
  OFFSET 0.000000 10.354800 0.006500
  CHANNELS 3 Yrotation Xrotation Zrotation
  JOINT Chest2
  {
   OFFSET 0.000000 10.435800 -0.013200
   CHANNELS 3 Yrotation Xrotation Zrotation
   JOINT Chest3
   {
    OFFSET 0.000000 10.393700 0.000000
    CHANNELS 3 Yrotation Xrotation Zrotation
    JOINT Chest4
    {
     OFFSET 0.000000 10.383100 0.000000
     CHANNELS 3 Yrotation Xrotation Zrotation
     JOINT Neck
     {
      OFFSET 0.000000 15.694000 0.000000
      CHANNELS 3 Yrotation Xrotation Zrotation
      JOINT Head
      {
       OFFSET 0.000000 9.711000 -0.028000
       CHANNELS 3 Yrotation Xrotation Zrotation
       End Site
       {
        OFFSET 0.000000 18.578700 -0.014800
       }
      }
     }
     JOINT RightCollar
     {
      OFFSET -3.157200 10.367500 0.000000
      CHANNELS 3 Yrotation Xrotation Zrotation
      JOINT RightShoulder
      {
       OFFSET -14.482500 0.000000 0.000000
       CHANNELS 3 Yrotation Xrotation Zrotation
       JOINT RightElbow
       {
        OFFSET 0.000000 -31.707800 0.000000
        CHANNELS 3 Yrotation Xrotation Zrotation
        JOINT RightWrist
        {
         OFFSET 0.000000 -25.659300 0.000000
         CHANNELS 3 Yrotation Xrotation Zrotation
         End Site
         {
          OFFSET 0.000000 -18.994300 0.000000
         }
        }
       }
      }
     }
     JOINT LeftCollar
     {
      OFFSET 3.157200 10.367500 0.000000
      CHANNELS 3 Yrotation Xrotation Zrotation
      JOINT LeftShoulder
      {
       OFFSET 14.482500 0.000000 0.000000
       CHANNELS 3 Yrotation Xrotation Zrotation
       JOINT LeftElbow
       {
        OFFSET 0.000000 -31.707800 0.000000
        CHANNELS 3 Yrotation Xrotation Zrotation
        JOINT LeftWrist
        {
         OFFSET 0.000000 -25.659300 0.000000
         CHANNELS 3 Yrotation Xrotation Zrotation
         End Site
         {
          OFFSET 0.000000 -18.994300 0.000000
         }
        }
       }
      }
     }
    }
   }
  }
 }
 JOINT RightHip
 {
  OFFSET -8.365600 -0.032100 -0.003200
  CHANNELS 3 Yrotation Xrotation Zrotation
  JOINT RightKnee
  {
   OFFSET 0.000000 -43.980000 0.003100
   CHANNELS 3 Yrotation Xrotation Zrotation
   JOINT RightAnkle
   {
    OFFSET 0.000000 -42.882800 0.005200
    CHANNELS 3 Yrotation Xrotation Zrotation
    JOINT RightToe
    {
     OFFSET 0.000000 -4.915500 10.826300
     CHANNELS 3 Yrotation Xrotation Zrotation
     End Site
     {
      OFFSET 0.000000 -1.517500 6.175900
     }
    }
   }
  }
 }
 JOINT LeftHip
 {
  OFFSET 8.365600 -0.032100 -0.003200
  CHANNELS 3 Yrotation Xrotation Zrotation
  JOINT LeftKnee
  {
   OFFSET 0.000000 -43.980000 0.003100
   CHANNELS 3 Yrotation Xrotation Zrotation
   JOINT LeftAnkle
   {
    OFFSET 0.000000 -42.882800 0.005200
    CHANNELS 3 Yrotation Xrotation Zrotation
    JOINT LeftToe
    {
     OFFSET 0.000000 -4.915500 10.826300
     CHANNELS 3 Yrotation Xrotation Zrotation
     End Site
     {
      OFFSET 0.000000 -1.517500 6.175900
     }
    }
   }
  }
 }
}
MOTION
Frames: 6
Frame Time: 0.008333
-0.487591 126.616972 40.164249 169.355537 -22.301293 -3.086897 1.167496 14.333147 4.048741 0.062177 1.276692 0.356056 0.114723 2.206578 0.595764 1.004029 12.800259 3.620889 -1.068244 20.653210 -2.306978 -0.613406 -3.772295 -2.217903 2.395417 8.851533 -5.827755 -8.713596 -7.246137 -11.185295 -98.400383 -50.588868 128.449605 -25.954976 -16.835245 -32.518877 7.139878 10.849058 4.869840 5.499953 -0.926998 -3.672249 74.425916 -53.090561 -123.380122 27.370246 -4.911540 33.426229 7.470689 -59.311417 -0.269985 -93.375792 78.279028 -85.772103 4.257858 5.348294 -18.172911 -0.018727 0.008361 -0.008504 -17.998818 -59.576486 3.676721 130.551085 84.364348 124.726894 -4.083080 -25.920664 0.432473 0.001186 0.005197 0.000539
-0.483780 126.610134 40.157661 169.337012 -22.192801 -3.078227 1.183267 14.265008 4.042714 0.067917 1.334966 0.349886 0.115602 2.183448 0.595543 1.019606 12.793393 3.611708 -1.076191 20.659420 -2.300175 -0.623405 -3.765266 -2.208877 2.388068 8.814992 -5.818648 -8.848083 -7.224934 -11.141039 -98.711124 -50.651461 128.588394 -25.884347 -16.906279 -32.588043 7.170736 10.865507 4.859954 5.746864 -0.904077 -3.711407 74.925365 -53.111280 -123.689209 27.356366 -5.015057 33.673907 7.492641 -59.436947 -0.258716 -93.347317 78.257125 -85.768594 4.217969 5.360604 -18.155973 -0.018101 0.010694 -0.008220 -18.097537 -59.676747 3.827334 130.369092 84.357946 124.520538 -4.004572 -25.882878 0.417671 0.001578 0.006096 0.000717
-0.479078 126.606092 40.146030 169.318417 -22.126392 -3.069309 1.209025 14.294589 4.035623 0.067092 1.295510 0.351642 0.119879 2.199484 0.591769 1.035117 12.789020 3.601439 -1.085456 20.661419 -2.294689 -0.634510 -3.763043 -2.200883 2.379940 8.778233 -5.811187 -8.975498 -7.202043 -11.101264 -99.036575 -50.711514 128.728959 -25.808408 -16.991703 -32.680030 7.201699 10.879165 4.848577 6.009246 -0.879821 -3.748782 75.451362 -53.132176 -124.012293 27.353045 -5.119881 33.936769 7.507193 -59.516795 -0.232199 -93.265854 78.236711 -85.717365 4.189919 5.382191 -18.140238 -0.017632 0.008228 -0.008007 -18.143449 -59.737247 3.912633 130.355697 84.366780 124.499189 -3.890216 -25.859664 0.396824 -0.003790 0.004781 -0.001721
-0.473731 126.604498 40.130313 169.318955 -22.095791 -3.066651 1.217145 14.338259 4.030080 0.063461 1.239787 0.354754 0.128201 2.250829 0.584840 1.038730 12.753161 3.600057 -1.092399 20.694691 -2.303968 -0.647079 -3.764657 -2.193606 2.381397 8.807883 -5.829043 -9.104058 -7.207617 -11.049302 -99.368366 -50.769061 128.861868 -25.731820 -17.085437 -32.786910 7.239111 10.925778 4.830504 6.282131 -0.852006 -3.787600 75.999148 -53.151638 -124.340090 27.352744 -5.222388 34.198603 7.497491 -59.559203 -0.204060 -93.289112 78.211755 -85.756325 4.186833 5.385675 -18.144758 -0.013152 0.004362 -0.005972 -18.183415 -59.762460 3.969348 129.677606 84.298567 123.820386 -3.882686 -25.837640 0.369635 -0.006325 0.001668 -0.002872
-0.469667 126.600049 40.123669 169.305516 -22.023625 -3.060617 1.227767 14.283535 4.026942 0.076696 1.341863 0.344684 0.125770 2.197240 0.587023 1.056492 12.772321 3.582821 -1.105087 20.672434 -2.292994 -0.659413 -3.770286 -2.186534 2.368699 8.828661 -5.874941 -9.235547 -7.254420 -10.953363 -99.700541 -50.821827 128.986588 -25.657835 -17.178466 -32.899516 7.268548 10.916935 4.826156 6.561334 -0.823028 -3.828218 76.566760 -53.166141 -124.674093 27.351228 -5.322695 34.452144 7.499844 -59.655587 -0.154454 -93.311482 78.166830 -85.805809 4.120424 5.397900 -18.134074 -0.007633 0.001227 -0.003466 -18.274280 -59.824451 4.100604 129.446011 84.274594 123.565350 -3.851602 -25.839406 0.348121 -0.002400 0.000675 -0.001090
-0.470481 126.593372 40.123503 169.298268 -21.919820 -3.036468 1.237527 14.244570 4.000920 0.079148 1.355163 0.340810 0.124830 2.182224 0.586097 1.070242 12.794944 3.562983 -1.115214 20.647531 -2.281065 -0.669266 -3.779171 -2.179319 2.357243 8.788084 -5.886901 -9.355783 -7.251866 -10.907138 -100.023800 -50.867228 129.102899 -25.590227 -17.270756 -33.009035 7.304262 10.907864 4.824706 6.839372 -0.796909 -3.868399 77.153119 -53.172386 -125.014049 27.345569 -5.430357 34.697909 7.558769 -59.763027 -0.209489 -93.264056 78.177132 -85.788692 4.139266 5.401454 -18.111194 -0.018689 0.013795 -0.008487 -18.354034 -59.926002 4.205517 129.370808 84.271631 123.467327 -3.817298 -25.847422 0.332183 -0.000665 -0.001523 -0.000302
